<?xml version="1.0" encoding="UTF-8"?>
<svg version="1.1" xmlns="http://www.w3.org/2000/svg" width="78" height="78">
<path d="M0 0 C8.67193614 6.93754891 13.29109374 13.68578121 16.8125 24.25 C17.74883998 37.29187834 17.11697233 48.2165598 8.375 58.6875 C7.20762284 59.89478749 6.02158548 61.08448517 4.8125 62.25 C3.925625 63.136875 3.03875 64.02375 2.125 64.9375 C-7.24334336 72.1288654 -17.64446585 73.52407776 -29.08105469 72.53662109 C-38.07026812 71.31347128 -45.01827095 66.64985444 -51.1875 60.25 C-52.5178125 58.9196875 -52.5178125 58.9196875 -53.875 57.5625 C-61.0663654 48.19415664 -62.46157776 37.79303415 -61.47412109 26.35644531 C-60.02307426 15.6923635 -53.77707694 8.64003012 -46.3125 1.5 C-32.18566522 -8.67132104 -14.87695371 -8.16773929 0 0 Z " fill="#da1fb8" transform="translate(61.1875,5.75)"/>
<path d="M0 0 C0.495 1.98 0.495 1.98 1 4 C-6.45343024 10.95913644 -14.0225787 17.64004798 -22 24 C-25.80199928 22.48091677 -27.77187204 20.22551214 -30.3125 17.0625 C-31.03050781 16.18722656 -31.74851562 15.31195313 -32.48828125 14.41015625 C-32.98714844 13.61480469 -33.48601563 12.81945312 -34 12 C-33.67 11.01 -33.34 10.02 -33 9 C-30.29068581 9.15481795 -28.53415961 9.48172081 -26.5546875 11.40234375 C-25.32320358 12.89771708 -24.1570163 14.4462924 -23 16 C-19.43485124 14.46386447 -16.96129644 12.3161548 -14.125 9.6875 C-13.24972656 8.88828125 -12.37445313 8.0890625 -11.47265625 7.265625 C-10.65667969 6.51796875 -9.84070313 5.7703125 -9 5 C-3.48394495 0 -3.48394495 0 0 0 Z " fill="#fff" transform="translate(56,29)"/>
</svg>
