<?xml version="1.0" encoding="UTF-8"?>
<svg version="1.1" xmlns="http://www.w3.org/2000/svg" width="100" height="100">
<path d="M0 0 C1.45170593 -0.00934319 1.45170593 -0.00934319 2.93273926 -0.01887512 C3.97136108 -0.00966537 5.00998291 -0.00045563 6.08007812 0.0090332 C7.6887677 0.00828545 7.6887677 0.00828545 9.32995605 0.00752258 C11.59612889 0.0098618 13.86230438 0.01958128 16.12841797 0.03613281 C19.59821798 0.05972531 23.06724953 0.0566923 26.53710938 0.05004883 C28.73893688 0.05562569 30.94076114 0.06273561 33.14257812 0.0715332 C34.18119995 0.0706218 35.21982178 0.06971039 36.28991699 0.06877136 C37.25772095 0.07830338 38.2255249 0.08783539 39.22265625 0.09765625 C40.07218872 0.10226364 40.92172119 0.10687103 41.79699707 0.11161804 C44.30084289 0.39366223 45.94531509 1.11596526 48.11132812 2.37231445 C48.15760631 11.8557746 48.19317425 21.33919606 48.21495247 30.82274437 C48.2254033 35.22602696 48.23958609 39.62923248 48.26220703 44.0324707 C48.28388924 48.2794127 48.29588695 52.52628041 48.30108261 56.77327347 C48.3047867 58.39604487 48.31201958 60.01881207 48.32278824 61.64155197 C48.33724192 63.90915562 48.33930867 66.17644973 48.33837891 68.4440918 C48.34282013 69.73648773 48.34726135 71.02888367 48.35183716 72.36044312 C48.11132812 75.37231445 48.11132812 75.37231445 46.11132812 77.37231445 C42.48632812 77.49731445 42.48632812 77.49731445 39.11132812 77.37231445 C38.45132813 79.02231445 37.79132813 80.67231445 37.11132812 82.37231445 C32.13564646 82.80834373 27.15927709 83.23509447 22.18212891 83.65405273 C20.49670082 83.79714606 18.81146873 83.94257131 17.12646484 84.09057617 C11.45863649 84.58739834 5.79042851 85.02575747 0.11132812 85.37231445 C-0.67032715 85.4201709 -1.45198242 85.46802734 -2.25732422 85.51733398 C-4.47838188 85.63679606 -6.69661645 85.71577944 -8.91992188 85.77856445 C-10.19416016 85.82303711 -11.46839844 85.86750977 -12.78125 85.91333008 C-15.88867188 85.37231445 -15.88867188 85.37231445 -17.54438782 83.16891479 C-18.94808319 80.24871728 -19.33866754 78.299415 -19.50463867 75.08569336 C-19.56447433 74.05336578 -19.62431 73.02103821 -19.68595886 71.95742798 C-19.76116508 70.29494522 -19.76116508 70.29494522 -19.83789062 68.59887695 C-19.90023392 67.44294037 -19.96257721 66.28700378 -20.02680969 65.09603882 C-20.15644822 62.64695377 -20.27959339 60.19751763 -20.39672852 57.74780273 C-20.57389095 54.04498739 -20.76941351 50.34352683 -20.96875 46.6418457 C-22.49203967 17.63294162 -22.49203967 17.63294162 -21.88867188 11.37231445 C-19.29940857 8.78305114 -17.86161908 8.99833403 -14.26367188 8.74731445 C-13.26078125 8.67254883 -12.25789062 8.5977832 -11.22460938 8.52075195 C-10.06832031 8.44727539 -10.06832031 8.44727539 -8.88867188 8.37231445 C-9.01242188 7.22762695 -9.01242188 7.22762695 -9.13867188 6.05981445 C-8.88867188 3.37231445 -8.88867188 3.37231445 -7.17858887 1.72761536 C-4.53089973 0.1605649 -3.05491528 -0.00226341 0 0 Z " fill="#da1fb8" transform="translate(26.888671875,6.627685546875)"/>
<path d="M0 0 C0.33 22.11 0.66 44.22 1 67 C15.85 67 30.7 67 46 67 C46.33 67.99 46.66 68.98 47 70 C46.34 70.99 45.68 71.98 45 73 C42.36702777 73.48130626 39.93049897 73.77131302 37.2734375 73.94921875 C36.49296051 74.01156204 35.71248352 74.07390533 34.90835571 74.13813782 C33.24605065 74.26809031 31.58319869 74.39119766 29.91992188 74.50805664 C27.4321607 74.68346958 24.94679878 74.87970956 22.4609375 75.08007812 C17.64375353 75.45577537 12.82508621 75.74753761 8 76 C7.22047974 76.04465393 6.44095947 76.08930786 5.63781738 76.13531494 C3.41734142 76.25152512 1.1990695 76.3298416 -1.0234375 76.39453125 C-2.29880371 76.4406958 -3.57416992 76.48686035 -4.88818359 76.53442383 C-8 76 -8 76 -9.6559906 73.79701233 C-11.05924315 70.87670932 -11.45000026 68.92701149 -11.6159668 65.71337891 C-11.67580246 64.68105133 -11.73563812 63.64872375 -11.79728699 62.58511353 C-11.84742447 61.47679169 -11.89756195 60.36846985 -11.94921875 59.2265625 C-12.01156204 58.07062592 -12.07390533 56.91468933 -12.13813782 55.72372437 C-12.26777635 53.27463932 -12.39092151 50.82520318 -12.50805664 48.37548828 C-12.68521907 44.67267294 -12.88074163 40.97121238 -13.08007812 37.26953125 C-14.60336779 8.26062717 -14.60336779 8.26062717 -14 2 C-10.17308506 -1.82691494 -4.88315159 -1.2207879 0 0 Z " fill="##022048" transform="translate(19,16)"/>
<path d="M0 0 C1.79133978 -0.05391993 3.58313899 -0.09275571 5.375 -0.125 C6.37273437 -0.14820313 7.37046875 -0.17140625 8.3984375 -0.1953125 C11 0 11 0 13 2 C13.26742554 4.69229126 13.26742554 4.69229126 13.29052734 8.15869141 C13.3096669 10.10178696 13.3096669 10.10178696 13.32919312 12.08413696 C13.33225192 13.50661063 13.33447906 14.92908629 13.3359375 16.3515625 C13.34236488 17.80927665 13.3490932 19.2669895 13.35610962 20.72470093 C13.36810128 23.78638697 13.37178891 26.84796009 13.37060547 29.90966797 C13.37040306 33.81694068 13.39761428 37.72347959 13.43214989 41.63057899 C13.45449409 44.64536806 13.4584406 47.65998329 13.45738602 50.67484665 C13.45973418 52.11404302 13.46851326 53.55324475 13.48405075 54.99235916 C13.56217661 62.98192089 13.62053999 69.28237282 9 76 C6.25 77 6.25 77 4 77 C0.17139752 70.51958053 -0.59996729 65.59119956 -0.609375 58.1328125 C-0.62591125 57.099216 -0.64244751 56.06561951 -0.65948486 55.0007019 C-0.70775071 51.70874218 -0.72921202 48.41723579 -0.75 45.125 C-0.77820226 42.95310163 -0.80813552 40.78122501 -0.83984375 38.609375 C-0.91092086 33.3812475 -0.95481083 28.15344941 -0.9831543 22.92492676 C-0.99935317 20.11230984 -1.02358747 17.29985264 -1.04882812 14.48730469 C-1.05913289 12.84310225 -1.06893256 11.19889653 -1.078125 9.5546875 C-1.08559753 8.80961945 -1.09307007 8.06455139 -1.10076904 7.29690552 C-1.11481773 2.22963546 -1.11481773 2.22963546 0 0 Z " fill="#022048" transform="translate(82,11)"/>
<path d="M0 0 C1.79133978 -0.05391993 3.58313899 -0.09275571 5.375 -0.125 C6.37273437 -0.14820313 7.37046875 -0.17140625 8.3984375 -0.1953125 C11 0 11 0 13 2 C13.27629475 5.68024605 13.0859315 9.30494557 13 13 C8.38 13 3.76 13 -1 13 C-1.125 2.25 -1.125 2.25 0 0 Z " fill="#da1fb8" transform="translate(82,11)"/>
<path d="M0 0 C4.29 0 8.58 0 13 0 C12.11839928 4.40800359 11.38019573 7.25969242 9 11 C6.3125 11.875 6.3125 11.875 4 12 C3.32332002 10.75539217 2.65905281 9.50403104 2 8.25 C1.62875 7.55390625 1.2575 6.8578125 0.875 6.140625 C0 4 0 4 0 0 Z " fill="#da1fb8" transform="translate(82,76)"/>
<path d="M0 0 C2.5 0.25 2.5 0.25 4.5 2.25 C4.87271546 5.15718056 4.89278138 6.66082793 3.25 9.125 C1.5 10.25 1.5 10.25 -0.5625 10.0625 C-2.5 9.25 -2.5 9.25 -4.5 7.25 C-4.75 4.75 -4.75 4.75 -4.5 2.25 C-2.5 0.25 -2.5 0.25 0 0 Z " fill="#fff" transform="translate(31.5,40.75)"/>
<path d="M0 0 C2.5 0.25 2.5 0.25 4.5 2.25 C4.75 4.75 4.75 4.75 4.5 7.25 C2.5 9.25 2.5 9.25 0 9.5 C-2.5 9.25 -2.5 9.25 -4.5 7.25 C-4.75 4.75 -4.75 4.75 -4.5 2.25 C-2.5 0.25 -2.5 0.25 0 0 Z " fill="#fff" transform="translate(31.5,61.75)"/>
<path d="M0 0 C2.5 0.25 2.5 0.25 4.5 2.25 C4.75 4.75 4.75 4.75 4.5 7.25 C2.5 9.25 2.5 9.25 0 9.5 C-2.5 9.25 -2.5 9.25 -4.5 7.25 C-4.75 4.75 -4.75 4.75 -4.5 2.25 C-2.5 0.25 -2.5 0.25 0 0 Z " fill="#fff" transform="translate(31.5,20.75)"/>
<path d="M0 0 C2.31 0 4.62 0 7 0 C6.67 1.32 6.34 2.64 6 4 C4.35 4.33 2.7 4.66 1 5 C0.67 3.35 0.34 1.7 0 0 Z " fill="#fff" transform="translate(85,83)"/>
</svg>
