<?xml version="1.0" encoding="UTF-8"?>
<svg version="1.1" xmlns="http://www.w3.org/2000/svg" width="78" height="78">
<path d="M0 0 C10.12478349 6.31692031 17.54998379 15.03723653 20.6796875 26.671875 C22.11929152 38.69987092 20.93499035 49.40962578 13.6953125 59.4140625 C7.36169124 66.9829645 -1.17589479 73.6970878 -11.29077148 74.90771484 C-24.3041759 75.73363145 -34.41125602 74.09002463 -44.6953125 65.484375 C-52.42613428 58.02699064 -57.45465011 49.20382964 -57.75219727 38.35351562 C-57.78359246 25.45691489 -54.95696569 16.37124714 -45.7890625 6.8671875 C-33.28557628 -4.25141892 -15.27657491 -7.532494 0 0 Z M-40.296875 11.2734375 C-47.84948663 18.31182877 -50.67189497 26.44275756 -51.3203125 36.671875 C-50.7675984 46.37980207 -46.25553122 54.61953705 -39.1875 61.171875 C-32.21385956 66.77413008 -23.55647025 69.02692632 -14.64453125 68.51953125 C-5.16651345 66.97179895 2.68676554 62.13181431 8.6796875 54.671875 C13.67900821 47.45410572 15.52609088 38.11223093 14.1171875 29.484375 C11.79722554 20.32199359 6.64952623 12.80682823 -1.125 7.421875 C-14.26789146 0.00513957 -28.82729987 1.97990824 -40.296875 11.2734375 Z " fill="#022048" transform="translate(57.3203125,3.328125)"/>
</svg>
